<svg width="20" height="20" viewBox="0 0 20 20" fill="none" xmlns="http://www.w3.org/2000/svg">
<g clip-path="url(#clip0_1525_150)">
<path d="M8.33333 4.99998V6.66665H4.16667V15.8333H13.3333V11.6666H15V16.6666C15 16.8877 14.9122 17.0996 14.7559 17.2559C14.5996 17.4122 14.3877 17.5 14.1667 17.5H3.33333C3.11232 17.5 2.90036 17.4122 2.74408 17.2559C2.5878 17.0996 2.5 16.8877 2.5 16.6666V5.83331C2.5 5.6123 2.5878 5.40034 2.74408 5.24406C2.90036 5.08778 3.11232 4.99998 3.33333 4.99998H8.33333ZM16.6667 3.33331V9.99998H15V6.17748L8.50583 12.6725L7.3275 11.4941L13.8208 4.99998H10V3.33331H16.6667Z" fill="inherit" />
</g>
<defs>
<clipPath id="clip0_1525_150">
<rect width="20" height="20" fill="white"/>
</clipPath>
</defs>
</svg>
