<svg width="350" height="44" viewBox="0 0 350 44" fill="none" xmlns="http://www.w3.org/2000/svg">
<path fill-rule="evenodd" clip-rule="evenodd" d="M7.57854 0.855774C3.42893 0.855774 0.0650024 4.2197 0.0650024 8.36931V35.6935C0.0650024 39.8431 3.42893 43.2071 7.57854 43.2071H49.0198C53.1695 43.2071 56.5334 39.8431 56.5334 35.6935V8.36931C56.5334 4.2197 53.1695 0.855774 49.0198 0.855774H7.57854ZM28.2401 21.4296C32.2288 21.4296 35.9334 20.2134 39.0035 18.1317C39.1408 18.8251 39.2128 19.542 39.2128 20.2757C39.2128 26.3358 34.3002 31.2485 28.2401 31.2485C22.18 31.2485 17.2673 26.3358 17.2673 20.2757C17.2673 19.542 17.3393 18.8251 17.4767 18.1317C20.5467 20.2134 24.2514 21.4296 28.2401 21.4296Z" fill="#0026F5"/>
<path d="M86.1168 8.75949C82.0941 8.45589 80.0827 10.0688 80.0827 13.5981V13.8828H86.1168V20.9415H80.0827V42.3453H72.7394V20.9415H68.6408V13.8828H72.7394V13.5981C72.7394 9.57542 73.8589 6.52044 76.098 4.43319C78.337 2.34593 81.6766 1.43513 86.1168 1.70078V8.75949Z" fill="black"/>
<path d="M111.31 13.8828H118.653V42.3453H111.31V38.9867C109.109 41.7571 106.016 43.1423 102.031 43.1423C98.2363 43.1423 94.9725 41.7002 92.2401 38.8159C89.5457 35.8938 88.1985 32.3265 88.1985 28.114C88.1985 23.9016 89.5457 20.3532 92.2401 17.469C94.9725 14.5469 98.2363 13.0858 102.031 13.0858C106.016 13.0858 109.109 14.471 111.31 17.2413V13.8828ZM97.7619 33.9204C99.2419 35.4004 101.12 36.1405 103.397 36.1405C105.674 36.1405 107.553 35.4004 109.033 33.9204C110.551 32.4024 111.31 30.4669 111.31 28.114C111.31 25.7611 110.551 23.8446 109.033 22.3646C107.553 20.8466 105.674 20.0876 103.397 20.0876C101.12 20.0876 99.2419 20.8466 97.7619 22.3646C96.2818 23.8446 95.5418 25.7611 95.5418 28.114C95.5418 30.4669 96.2818 32.4024 97.7619 33.9204Z" fill="black"/>
<path d="M136.773 43.1423C132.485 43.1423 128.899 41.7002 126.015 38.8159C123.168 35.9317 121.745 32.3644 121.745 28.114C121.745 23.8636 123.168 20.2963 126.015 17.4121C128.899 14.5279 132.485 13.0858 136.773 13.0858C139.544 13.0858 142.067 13.7499 144.344 15.0782C146.621 16.4064 148.348 18.1901 149.525 20.4291L143.206 24.1293C142.637 22.9528 141.764 22.023 140.587 21.3399C139.449 20.6568 138.159 20.3153 136.716 20.3153C134.515 20.3153 132.694 21.0553 131.252 22.5354C129.81 23.9775 129.088 25.837 129.088 28.114C129.088 30.3531 129.81 32.2126 131.252 33.6927C132.694 35.1348 134.515 35.8558 136.716 35.8558C138.197 35.8558 139.506 35.5333 140.644 34.8881C141.821 34.205 142.694 33.2752 143.263 32.0988L150.473 35.742C149.221 37.981 146.621 39.7837 144.344 41.1499C142.067 42.4781 139.544 43.1423 136.773 43.1423Z" fill="black"/>
<path d="M160.117 31.1311C161.104 34.6984 163.779 36.482 168.144 36.482C170.952 36.482 173.077 35.5333 174.519 33.6358L180.439 37.0513C177.631 41.1119 173.495 43.1423 168.03 43.1423C163.324 43.1423 159.548 41.7191 156.702 38.8729C153.855 36.0266 152.432 32.4403 152.432 28.114C152.432 23.8257 153.836 20.2584 156.645 17.4121C159.453 14.5279 163.058 13.0858 167.461 13.0858C171.635 13.0858 175.07 14.5279 177.764 17.4121C180.496 20.2963 181.863 23.8636 181.863 28.114C181.863 29.0628 181.768 30.0685 181.578 31.1311H160.117ZM160.003 25.4385H174.519C174.102 23.5031 173.229 22.061 171.901 21.1122C170.61 20.1635 169.13 19.6891 167.461 19.6891C165.487 19.6891 163.855 20.2014 162.565 21.2261C161.275 22.2128 160.421 23.6169 160.003 25.4385Z" fill="black"/>
<path d="M227.008 13.8828H234.807L225.755 42.3453H218.754L213.517 25.097L208.279 42.3453H201.278L192.227 13.8828H200.025L204.864 31.3588L210.044 13.8828H216.989L222.169 31.4157L227.008 13.8828Z" fill="black"/>
<path d="M260.119 13.8828H267.463V42.3453H260.119V38.9867C257.918 41.7571 254.825 43.1423 250.84 43.1423C247.045 43.1423 243.782 41.7002 241.049 38.8159C238.355 35.8938 237.008 32.3265 237.008 28.114C237.008 23.9016 238.355 20.3532 241.049 17.469C243.782 14.5469 247.045 13.0858 250.84 13.0858C254.825 13.0858 257.918 14.471 260.119 17.2413V13.8828ZM246.571 33.9204C248.051 35.4004 249.93 36.1405 252.207 36.1405C254.484 36.1405 256.362 35.4004 257.842 33.9204C259.36 32.4024 260.119 30.4669 260.119 28.114C260.119 25.7611 259.36 23.8446 257.842 22.3646C256.362 20.8466 254.484 20.0876 252.207 20.0876C249.93 20.0876 248.051 20.8466 246.571 22.3646C245.091 23.8446 244.351 25.7611 244.351 28.114C244.351 30.4669 245.091 32.4024 246.571 33.9204Z" fill="black"/>
<path d="M273.287 42.3453V0.789978H280.63V42.3453H273.287Z" fill="black"/>
<path d="M286.934 42.3453V0.789978H294.277V42.3453H286.934Z" fill="black"/>
<path d="M307.62 31.1311C308.607 34.6984 311.283 36.482 315.647 36.482C318.455 36.482 320.58 35.5333 322.022 33.6358L327.943 37.0513C325.134 41.1119 320.998 43.1423 315.533 43.1423C310.827 43.1423 307.051 41.7191 304.205 38.8729C301.359 36.0266 299.936 32.4403 299.936 28.114C299.936 23.8257 301.34 20.2584 304.148 17.4121C306.956 14.5279 310.562 13.0858 314.964 13.0858C319.138 13.0858 322.573 14.5279 325.267 17.4121C328 20.2963 329.366 23.8636 329.366 28.114C329.366 29.0628 329.271 30.0685 329.081 31.1311H307.62ZM307.507 25.4385H322.022C321.605 23.5031 320.732 22.061 319.404 21.1122C318.114 20.1635 316.634 19.6891 314.964 19.6891C312.99 19.6891 311.359 20.2014 310.068 21.2261C308.778 22.2128 307.924 23.6169 307.507 25.4385Z" fill="black"/>
<path d="M349.939 20.9415H343.506V32.7819C343.506 33.7686 343.753 34.4896 344.246 34.945C344.74 35.4004 345.461 35.6661 346.41 35.742C347.358 35.7799 348.535 35.761 349.939 35.6851V42.3453C344.892 42.9146 341.324 42.4402 339.237 40.9222C337.188 39.4042 336.163 36.6907 336.163 32.7819V20.9415H331.211V13.8828H336.163V8.13332L343.506 5.91324V13.8828H349.939V20.9415Z" fill="black"/>
</svg>
